<svg xmlns="http://www.w3.org/2000/svg" width="13.508" height="13.507" viewBox="0 0 13.508 13.507">
  <g id="Groupe_68" data-name="Groupe 68" transform="translate(-248.923 -485.722)">
    <path id="Tracé_26" data-name="Tracé 26" d="M255.69,485.722a6.753,6.753,0,1,1-6.767,6.745A6.758,6.758,0,0,1,255.69,485.722Zm-.057.915a5.835,5.835,0,1,0,5.877,5.789A5.815,5.815,0,0,0,255.633,486.637Z" transform="translate(0)" fill="#474747"/>
    <path id="Tracé_27" data-name="Tracé 27" d="M295.869,528.43c-.3,0-.582.007-.865-.007-.046,0-.1-.084-.13-.141a2.57,2.57,0,1,0-.01,1.928.209.209,0,0,1,.232-.155c.251.009.5,0,.753,0-.023,1.24-1.689,2.614-3.217,2.664a3.481,3.481,0,1,1,3.237-4.293Z" transform="translate(-36.818 -36.771)" fill="#474747"/>
  </g>
</svg>
