<svg id="Groupe_109" data-name="Groupe 109" xmlns="http://www.w3.org/2000/svg" width="22.865" height="31.869" viewBox="0 0 22.865 31.869">
  <g id="Groupe_99" data-name="Groupe 99" transform="translate(0 0)">
    <g id="Groupe_97" data-name="Groupe 97">
      <path id="Tracé_47" data-name="Tracé 47" d="M672.555,67.453c-1.263,0-2.533.067-3.786-.044-.365-.032-1-.609-.977-.882.514-5.073-1.76-9.163-4.434-13.159a11.305,11.305,0,0,1,18.208-13.385,10.274,10.274,0,0,1,1.212,11.66,35.091,35.091,0,0,1-2.542,4.3,15.437,15.437,0,0,0-2.8,9.819c.086,1.44-.441,1.828-1.765,1.707C674.638,67.38,673.593,67.454,672.555,67.453Zm3.079-7.282c.878-.454,1.575-.579,1.82-.98,1.4-2.3,2.71-4.669,4.034-7.021a9.963,9.963,0,0,0-4.625-14.7,10.152,10.152,0,0,0-10.82,1.384,9.81,9.81,0,0,0-2.8,12.374c1.3,2.565,2.906,4.977,4.228,7.533a2.754,2.754,0,0,0,3.168,1.1m5.779,6.67a6.537,6.537,0,0,0,.128-1.7c-.072-.369-.474-.951-.744-.96-2.321-.076-4.646-.044-7.1-.044a11.6,11.6,0,0,0,.035,2.017,1.04,1.04,0,0,0,.742.661C671.758,66.554,674.038,66.532,676.418,66.532Zm-5.835-6.868h4.089m-6.21,1.152c-.067,2.165-.067,2.166,1.994,2.168q2.156,0,4.313,0c1.99,0,1.99,0,1.976-2.168Z" transform="translate(-661.18 -35.625)"/>
    </g>
    <g id="Groupe_98" data-name="Groupe 98" transform="translate(5.871 9.61)">
      <path id="Tracé_48" data-name="Tracé 48" d="M707.552,80.627c0,.956.016,1.912-.005,2.868-.016.711-.094,1.421-.119,2.133a11.9,11.9,0,0,0,.031,1.316c.054.716.143,1.43.2,2.146.056.671.121,1.344.126,2.016a2.47,2.47,0,0,1-.213.911.574.574,0,0,1-.686.32.541.541,0,0,1-.458-.468,5.24,5.24,0,0,1-.121-.94c.006-.9.037-1.8.071-2.707.022-.591.042-1.183.1-1.77a14.706,14.706,0,0,0-.221-2.725c-.081-1.019-.087-2.045-.105-3.069a10.7,10.7,0,0,1,.278-2.678,1.346,1.346,0,0,1,.448-.818.534.534,0,0,1,.368-.107c.064.011.135.19.141.3.038.757.064,1.515.086,2.273.01.334,0,.668,0,1Z" transform="translate(-701.594 -77.052)"/>
      <path id="Tracé_49" data-name="Tracé 49" d="M713.049,98.734c-.762-.116-.783-.733-.595-1.263a13.416,13.416,0,0,1,.631-1.4,14.965,14.965,0,0,0,.91-2.416c.282-.961.566-1.921.845-2.883a1.107,1.107,0,0,0-.2-1.16,1.922,1.922,0,0,1-.275-2.092,3.239,3.239,0,0,1,1.43-1.757.616.616,0,0,1,.945.236,3.347,3.347,0,0,1,.436,2.094,2.13,2.13,0,0,1-.691,1.5,1.956,1.956,0,0,1-.6.354.918.918,0,0,0-.619.7c-.213.963-.412,1.929-.608,2.9-.107.527-.223,1.054-.285,1.587-.076.658-.093,1.322-.148,1.983a7.285,7.285,0,0,1-.134.985A.739.739,0,0,1,713.049,98.734Z" transform="translate(-706.356 -83.645)"/>
      <path id="Tracé_50" data-name="Tracé 50" d="M687.874,83.7c.267.731.539,1.459.8,2.193.144.407.265.822.394,1.234a1.2,1.2,0,0,1-.062.883,1.809,1.809,0,0,0-.082,1.343c.323,1.06.6,2.136.948,3.185.25.743.6,1.453.9,2.178.212.507.451,1,.631,1.523a.794.794,0,0,1-.559.954.815.815,0,0,1-.97-.547c-.091-.4-.128-.819-.185-1.229-.1-.732-.151-1.476-.312-2.2-.3-1.331-.666-2.647-.994-3.971a1.127,1.127,0,0,0-.484-.716,2.212,2.212,0,0,1-.917-1.65q-.21-1.058-.414-2.117a3.64,3.64,0,0,1-.076-.707c.217.781.433,1.562.652,2.342.074.263.149.526.242.783.022.062.116.1.177.146.03-.073.1-.155.082-.219-.163-.725-.34-1.447-.51-2.171-.07-.3-.132-.6-.2-.905l.08-.022c.154.555.306,1.11.463,1.663.127.445.258.889.4,1.331.032.1.027.277.218.211s.086-.2.058-.306c-.216-.846-.437-1.69-.654-2.535a.719.719,0,0,1-.013-.315c.146.447.295.892.437,1.34.158.5.305,1,.47,1.5.021.063.118.1.179.15.04-.069.11-.137.112-.207a1.1,1.1,0,0,0-.068-.309q-.374-1.338-.75-2.676c-.014-.05-.023-.1-.035-.153Z" transform="translate(-686.491 -82.161)"/>
    </g>
    <rect id="Rectangle_68" data-name="Rectangle 68" width="10.091" height="1.174" transform="translate(6.267 24.122)"/>
  </g>
</svg>
