<svg xmlns="http://www.w3.org/2000/svg" width="1384" height="34" viewBox="0 0 1384 34">
  <g id="Groupe_114" data-name="Groupe 114" transform="translate(-441 -5199)">
    <path id="Tracé_9" data-name="Tracé 9" d="M17,0A17,17,0,1,1,0,17,17,17,0,0,1,17,0Z" transform="translate(441 5199)" fill="rgba(206,200,200,0.65)"/>
    <path id="Tracé_80" data-name="Tracé 80" d="M9.741,15H7.335l-.7-2.181H3.151L2.461,15H.068L3.637,5.2H6.255ZM6.132,11.124,5.079,7.829a4.294,4.294,0,0,1-.164-.882H4.86a3.739,3.739,0,0,1-.171.854L3.623,11.124Z" transform="translate(453 5205)" fill="#fff"/>
    <path id="Tracé_9-2" data-name="Tracé 9" d="M17,0A17,17,0,1,1,0,17,17,17,0,0,1,17,0Z" transform="translate(495 5199)" fill="rgba(206,200,200,0.65)"/>
    <path id="Tracé_79" data-name="Tracé 79" d="M1.121,15V5.2H4.689a4.456,4.456,0,0,1,2.522.6,1.935,1.935,0,0,1,.882,1.7,2.006,2.006,0,0,1-.537,1.388,2.819,2.819,0,0,1-1.371.827v.027a2.716,2.716,0,0,1,1.671.772,2.16,2.16,0,0,1,.625,1.565A2.616,2.616,0,0,1,7.52,14.21,4.033,4.033,0,0,1,4.888,15ZM3.329,6.824V9.148H4.3a1.618,1.618,0,0,0,1.077-.332A1.13,1.13,0,0,0,5.77,7.9q0-1.08-1.613-1.08Zm0,3.965v2.584h1.2a1.841,1.841,0,0,0,1.2-.355,1.187,1.187,0,0,0,.434-.971,1.108,1.108,0,0,0-.427-.923,1.89,1.89,0,0,0-1.193-.335Z" transform="translate(508 5205)" fill="#fff"/>
    <path id="Tracé_9-3" data-name="Tracé 9" d="M17,0A17,17,0,1,1,0,17,17,17,0,0,1,17,0Z" transform="translate(549 5199)" fill="rgba(206,200,200,0.65)"/>
    <path id="Tracé_78" data-name="Tracé 78" d="M8.148,14.651a6.464,6.464,0,0,1-2.8.52A4.724,4.724,0,0,1,1.8,13.845,4.848,4.848,0,0,1,.506,10.311,5.179,5.179,0,0,1,1.958,6.5a5.081,5.081,0,0,1,3.77-1.463,7.05,7.05,0,0,1,2.42.362V7.521a4.288,4.288,0,0,0-2.242-.588A2.974,2.974,0,0,0,3.678,7.8a3.221,3.221,0,0,0-.848,2.352,3.16,3.16,0,0,0,.8,2.266,2.826,2.826,0,0,0,2.153.844,4.593,4.593,0,0,0,2.365-.629Z" transform="translate(561 5205)" fill="#fff"/>
    <path id="Tracé_9-4" data-name="Tracé 9" d="M17,0A17,17,0,1,1,0,17,17,17,0,0,1,17,0Z" transform="translate(603 5199)" fill="rgba(206,200,200,0.65)"/>
    <path id="Tracé_77" data-name="Tracé 77" d="M1.121,15V5.2H4.594q5.223,0,5.223,4.778a4.832,4.832,0,0,1-1.425,3.657A5.256,5.256,0,0,1,4.594,15ZM3.329,7v6.214H4.423a2.956,2.956,0,0,0,2.252-.861A3.268,3.268,0,0,0,7.492,10a2.965,2.965,0,0,0-.81-2.2A3.088,3.088,0,0,0,4.409,7Z" transform="translate(615 5205)" fill="#fff"/>
    <path id="Tracé_9-5" data-name="Tracé 9" d="M17,0A17,17,0,1,1,0,17,17,17,0,0,1,17,0Z" transform="translate(657 5199)" fill="rgba(206,200,200,0.65)"/>
    <path id="Tracé_76" data-name="Tracé 76" d="M7,15H1.121V5.2H6.774V7H3.329V9.176H6.535v1.791H3.329v2.242H7Z" transform="translate(670 5205)" fill="#fff"/>
    <path id="Tracé_9-6" data-name="Tracé 9" d="M17,0A17,17,0,1,1,0,17,17,17,0,0,1,17,0Z" transform="translate(711 5199)" fill="rgba(206,200,200,0.65)"/>
    <path id="Tracé_75" data-name="Tracé 75" d="M6.788,7H3.329V9.4H6.508v1.791H3.329V15H1.121V5.2H6.788Z" transform="translate(724 5205)" fill="#fff"/>
    <path id="Tracé_9-7" data-name="Tracé 9" d="M17,0A17,17,0,1,1,0,17,17,17,0,0,1,17,0Z" transform="translate(765 5199)" fill="rgba(206,200,200,0.65)"/>
    <path id="Tracé_74" data-name="Tracé 74" d="M9.167,14.344a7.055,7.055,0,0,1-3.568.827A5.161,5.161,0,0,1,1.87,13.862,4.763,4.763,0,0,1,.506,10.256,5.034,5.034,0,0,1,2,6.489,5.429,5.429,0,0,1,5.961,5.033a8.053,8.053,0,0,1,2.748.431V7.535a5.462,5.462,0,0,0-2.775-.656,2.98,2.98,0,0,0-2.239.892,3.277,3.277,0,0,0-.865,2.382,3.287,3.287,0,0,0,.776,2.338,2.735,2.735,0,0,0,2.1.827,2.916,2.916,0,0,0,1.258-.226V11.179H5V9.415h4.17Z" transform="translate(777 5205)" fill="#fff"/>
    <path id="Tracé_9-8" data-name="Tracé 9" d="M17,0A17,17,0,1,1,0,17,17,17,0,0,1,17,0Z" transform="translate(819 5199)" fill="rgba(206,200,200,0.65)"/>
    <path id="Tracé_73" data-name="Tracé 73" d="M9.6,15H7.39V11.008H3.329V15H1.121V5.2H3.329v3.91H7.39V5.2H9.6Z" transform="translate(831 5205)" fill="#fff"/>
    <path id="Tracé_9-9" data-name="Tracé 9" d="M17,0A17,17,0,1,1,0,17,17,17,0,0,1,17,0Z" transform="translate(873 5199)" fill="rgba(206,200,200,0.65)"/>
    <path id="Tracé_72" data-name="Tracé 72" d="M3.329,15H1.121V5.2H3.329Z" transform="translate(888 5205)" fill="#fff"/>
    <path id="Tracé_9-10" data-name="Tracé 9" d="M17,0A17,17,0,1,1,0,17,17,17,0,0,1,17,0Z" transform="translate(927 5199)" fill="rgba(206,200,200,0.65)"/>
    <path id="Tracé_71" data-name="Tracé 71" d="M5.209,11.11A4.451,4.451,0,0,1,4.3,14.125a3.318,3.318,0,0,1-2.642,1.046A3.76,3.76,0,0,1,.226,14.9V12.833a2.051,2.051,0,0,0,1.271.431q1.511,0,1.511-2.242V5.2h2.2Z" transform="translate(940 5205)" fill="#fff"/>
    <path id="Tracé_9-11" data-name="Tracé 9" d="M17,0A17,17,0,1,1,0,17,17,17,0,0,1,17,0Z" transform="translate(981 5199)" fill="rgba(206,200,200,0.65)"/>
    <path id="Tracé_70" data-name="Tracé 70" d="M9.27,15H6.48L3.623,10.741a4.082,4.082,0,0,1-.26-.54H3.329V15H1.121V5.2H3.329V9.832h.034q.082-.191.273-.547L6.344,5.2H8.976L5.558,9.873Z" transform="translate(993 5205)" fill="#fff"/>
    <path id="Tracé_9-12" data-name="Tracé 9" d="M17,0A17,17,0,1,1,0,17,17,17,0,0,1,17,0Z" transform="translate(1035 5199)" fill="rgba(206,200,200,0.65)"/>
    <path id="Tracé_69" data-name="Tracé 69" d="M6.959,15H1.121V5.2H3.329v8.012h3.63Z" transform="translate(1048 5205)" fill="#fff"/>
    <path id="Tracé_9-13" data-name="Tracé 9" d="M17,0A17,17,0,1,1,0,17,17,17,0,0,1,17,0Z" transform="translate(1089 5199)" fill="rgba(206,200,200,0.65)"/>
    <path id="Tracé_68" data-name="Tracé 68" d="M12.291,15H10.11V9.135q0-.95.082-2.1h-.055a10.327,10.327,0,0,1-.308,1.3L7.533,15h-1.8L3.391,8.4a12.837,12.837,0,0,1-.308-1.367H3.021q.089,1.449.089,2.543V15H1.121V5.2H4.354l2,5.811a8.181,8.181,0,0,1,.349,1.4h.041a14.111,14.111,0,0,1,.39-1.415l2-5.8h3.151Z" transform="translate(1099 5205)" fill="#fff"/>
    <path id="Tracé_9-14" data-name="Tracé 9" d="M17,0A17,17,0,1,1,0,17,17,17,0,0,1,17,0Z" transform="translate(1143 5199)" fill="rgba(206,200,200,0.65)"/>
    <path id="Tracé_67" data-name="Tracé 67" d="M9.939,15H7.711L3.671,8.841a8.907,8.907,0,0,1-.492-.813H3.151q.055.52.055,1.586V15H1.121V5.2H3.5l3.89,5.968q.267.4.492.8h.027a10.481,10.481,0,0,1-.055-1.347V5.2H9.939Z" transform="translate(1155 5205)" fill="#fff"/>
    <path id="Tracé_9-15" data-name="Tracé 9" d="M17,0A17,17,0,1,1,0,17,17,17,0,0,1,17,0Z" transform="translate(1197 5199)" fill="rgba(206,200,200,0.65)"/>
    <path id="Tracé_66" data-name="Tracé 66" d="M5.264,15.171A4.563,4.563,0,0,1,1.832,13.8,4.921,4.921,0,0,1,.506,10.229a5.273,5.273,0,0,1,1.347-3.76A4.662,4.662,0,0,1,5.421,5.033,4.449,4.449,0,0,1,8.815,6.407a5.066,5.066,0,0,1,1.3,3.623,5.188,5.188,0,0,1-1.343,3.726A4.61,4.61,0,0,1,5.264,15.171Zm.1-8.237a2.223,2.223,0,0,0-1.846.872,3.634,3.634,0,0,0-.684,2.307,3.567,3.567,0,0,0,.684,2.3,2.19,2.19,0,0,0,1.791.848,2.212,2.212,0,0,0,1.812-.824,3.528,3.528,0,0,0,.67-2.287,3.823,3.823,0,0,0-.649-2.372A2.117,2.117,0,0,0,5.359,6.934Z" transform="translate(1209 5205)" fill="#fff"/>
    <path id="Tracé_9-16" data-name="Tracé 9" d="M17,0A17,17,0,1,1,0,17,17,17,0,0,1,17,0Z" transform="translate(1251 5199)" fill="rgba(206,200,200,0.65)"/>
    <path id="Tracé_65" data-name="Tracé 65" d="M3.329,11.623V15H1.121V5.2H4.58q3.705,0,3.705,3.124A3,3,0,0,1,7.222,10.71a4.211,4.211,0,0,1-2.84.913Zm0-4.73V9.948H4.2q1.764,0,1.764-1.545,0-1.511-1.764-1.511Z" transform="translate(1264 5205)" fill="#fff"/>
    <path id="Tracé_9-17" data-name="Tracé 9" d="M17,0A17,17,0,1,1,0,17,17,17,0,0,1,17,0Z" transform="translate(1305 5199)" fill="rgba(206,200,200,0.65)"/>
    <path id="Tracé_64" data-name="Tracé 64" d="M5.264,15.171A4.569,4.569,0,0,1,1.832,13.8,4.947,4.947,0,0,1,.506,10.229a5.288,5.288,0,0,1,1.347-3.76A4.649,4.649,0,0,1,5.421,5.033,4.438,4.438,0,0,1,8.812,6.407a5.043,5.043,0,0,1,1.3,3.623,5.2,5.2,0,0,1-1.347,3.726q-.048.048-.089.092a1.056,1.056,0,0,1-.089.085l2.481,2.386H7.978L6.679,15A5.5,5.5,0,0,1,5.264,15.171Zm.1-8.237a2.231,2.231,0,0,0-1.846.875,3.619,3.619,0,0,0-.684,2.3,3.567,3.567,0,0,0,.684,2.3,2.19,2.19,0,0,0,1.791.848,2.216,2.216,0,0,0,1.812-.82,3.56,3.56,0,0,0,.67-2.29,3.841,3.841,0,0,0-.649-2.372A2.106,2.106,0,0,0,5.359,6.934Z" transform="translate(1316 5205)" fill="#fff"/>
    <path id="Tracé_9-18" data-name="Tracé 9" d="M17,0A17,17,0,1,1,0,17,17,17,0,0,1,17,0Z" transform="translate(1359 5199)" fill="rgba(206,200,200,0.65)"/>
    <path id="Tracé_63" data-name="Tracé 63" d="M9.345,15H6.809L5.284,12.478q-.171-.287-.328-.513a2.848,2.848,0,0,0-.318-.386,1.264,1.264,0,0,0-.335-.246.85.85,0,0,0-.379-.085H3.329V15H1.121V5.2h3.5q3.568,0,3.568,2.666a2.761,2.761,0,0,1-.157.947,2.63,2.63,0,0,1-.444.783,2.817,2.817,0,0,1-.694.6,3.578,3.578,0,0,1-.906.4v.027a1.4,1.4,0,0,1,.424.222,3.035,3.035,0,0,1,.4.359,5.007,5.007,0,0,1,.366.441q.174.236.318.461ZM3.329,6.852V9.579h.957a1.587,1.587,0,0,0,1.142-.41,1.369,1.369,0,0,0,.438-1.032q0-1.285-1.538-1.285Z" transform="translate(1371 5205)" fill="#fff"/>
    <path id="Tracé_9-19" data-name="Tracé 9" d="M17,0A17,17,0,1,1,0,17,17,17,0,0,1,17,0Z" transform="translate(1413 5199)" fill="rgba(206,200,200,0.65)"/>
    <path id="Tracé_62" data-name="Tracé 62" d="M.67,14.624V12.437a4.2,4.2,0,0,0,1.292.749,4.153,4.153,0,0,0,1.408.25,3.123,3.123,0,0,0,.728-.075,1.705,1.705,0,0,0,.52-.208.909.909,0,0,0,.311-.314.785.785,0,0,0,.1-.393.85.85,0,0,0-.164-.513,1.765,1.765,0,0,0-.448-.417,4.678,4.678,0,0,0-.673-.369q-.39-.178-.841-.362A4.291,4.291,0,0,1,1.193,9.613,2.552,2.552,0,0,1,.629,7.945,2.657,2.657,0,0,1,.937,6.629a2.613,2.613,0,0,1,.837-.906A3.755,3.755,0,0,1,3,5.2a6.3,6.3,0,0,1,1.477-.167,8.881,8.881,0,0,1,1.357.092,5.336,5.336,0,0,1,1.09.284V7.453a3.3,3.3,0,0,0-.537-.3,4.252,4.252,0,0,0-.6-.215,4.563,4.563,0,0,0-.612-.126A4.33,4.33,0,0,0,4.6,6.77a3.012,3.012,0,0,0-.684.072,1.753,1.753,0,0,0-.52.2,1,1,0,0,0-.328.311.737.737,0,0,0-.116.407.777.777,0,0,0,.13.441,1.49,1.49,0,0,0,.369.369,3.917,3.917,0,0,0,.581.342q.342.167.772.345a8.608,8.608,0,0,1,1.056.523,3.755,3.755,0,0,1,.8.625,2.437,2.437,0,0,1,.513.8,2.814,2.814,0,0,1,.178,1.042,2.792,2.792,0,0,1-.311,1.377,2.525,2.525,0,0,1-.844.9,3.661,3.661,0,0,1-1.241.5,7.17,7.17,0,0,1-1.494.15,8.305,8.305,0,0,1-1.535-.137A4.633,4.633,0,0,1,.67,14.624Z" transform="translate(1425 5205)" fill="#fff"/>
    <path id="Tracé_9-20" data-name="Tracé 9" d="M17,0A17,17,0,1,1,0,17,17,17,0,0,1,17,0Z" transform="translate(1467 5199)" fill="rgba(206,200,200,0.65)"/>
    <path id="Tracé_61" data-name="Tracé 61" d="M8,7h-2.8v8H2.994V7H.212V5.2H8Z" transform="translate(1479 5205)" fill="#fff"/>
    <path id="Tracé_9-21" data-name="Tracé 9" d="M17,0A17,17,0,1,1,0,17,17,17,0,0,1,17,0Z" transform="translate(1521 5199)" fill="rgba(206,200,200,0.65)"/>
    <path id="Tracé_60" data-name="Tracé 60" d="M9.112,10.755q0,4.416-4.115,4.416Q1,15.171,1,10.857V5.2H3.22v5.688q0,2.379,1.859,2.379,1.825,0,1.825-2.3V5.2H9.112Z" transform="translate(1533 5205)" fill="#fff"/>
    <path id="Tracé_9-22" data-name="Tracé 9" d="M17,0A17,17,0,1,1,0,17,17,17,0,0,1,17,0Z" transform="translate(1575 5199)" fill="rgba(206,200,200,0.65)"/>
    <path id="Tracé_59" data-name="Tracé 59" d="M9.283,5.2,5.906,15H3.4L.068,5.2H2.447L4.491,12.02a4.886,4.886,0,0,1,.2.978H4.73a5.525,5.525,0,0,1,.212-1L6.973,5.2Z" transform="translate(1587 5205)" fill="#fff"/>
    <path id="Tracé_9-23" data-name="Tracé 9" d="M17,0A17,17,0,1,1,0,17,17,17,0,0,1,17,0Z" transform="translate(1629 5199)" fill="rgba(206,200,200,0.65)"/>
    <path id="Tracé_58" data-name="Tracé 58" d="M13.945,5.2,11.354,15H8.907L7.28,8.711a5.244,5.244,0,0,1-.157-1.1H7.1a6.687,6.687,0,0,1-.178,1.1L5.25,15H2.7L.123,5.2H2.536l1.381,6.528a7.793,7.793,0,0,1,.13,1.121h.041a5.427,5.427,0,0,1,.2-1.148L6.063,5.2H8.429l1.606,6.583a8.061,8.061,0,0,1,.157,1.053h.027a7.058,7.058,0,0,1,.144-1.094L11.717,5.2Z" transform="translate(1640 5205)" fill="#fff"/>
    <path id="Tracé_9-24" data-name="Tracé 9" d="M17,0A17,17,0,1,1,0,17,17,17,0,0,1,17,0Z" transform="translate(1683 5199)" fill="rgba(206,200,200,0.65)"/>
    <path id="Tracé_57" data-name="Tracé 57" d="M9.126,15H6.508L4.819,11.808a2.8,2.8,0,0,1-.2-.656H4.594a4.968,4.968,0,0,1-.226.684L2.673,15H.041l3.124-4.9L.308,5.2H2.994L4.4,8.137a5.079,5.079,0,0,1,.294.827h.027q.082-.287.308-.854L6.583,5.2H9.044L6.1,10.058Z" transform="translate(1695 5205)" fill="#fff"/>
    <path id="Tracé_9-25" data-name="Tracé 9" d="M17,0A17,17,0,1,1,0,17,17,17,0,0,1,17,0Z" transform="translate(1737 5199)" fill="rgba(206,200,200,0.65)"/>
    <path id="Tracé_56" data-name="Tracé 56" d="M8.511,5.2,5.318,11.514V15H3.11V11.555L0,5.2H2.522L4.1,8.854q.041.1.226.8h.027a3.561,3.561,0,0,1,.212-.772L6.173,5.2Z" transform="translate(1749 5205)" fill="#fff"/>
    <path id="Tracé_9-26" data-name="Tracé 9" d="M17,0A17,17,0,1,1,0,17,17,17,0,0,1,17,0Z" transform="translate(1791 5199)" fill="rgba(206,200,200,0.65)"/>
    <path id="Tracé_55" data-name="Tracé 55" d="M8.176,15H.28V13.729L5.3,7H.643V5.2h7.52V6.435L3.247,13.209H8.176Z" transform="translate(1803 5205)" fill="#fff"/>
  </g>
</svg>
