<svg xmlns="http://www.w3.org/2000/svg" width="42.16" height="42.31" viewBox="0 0 42.16 42.31">
  <g id="Groupe_6" data-name="Groupe 6" transform="translate(0.5 0.5)">
    <path id="Tracé_4" data-name="Tracé 4" d="M814.61-935.193A20.551,20.551,0,0,1,835.169-914.5a20.538,20.538,0,0,1-20.633,20.615,20.473,20.473,0,0,1-20.528-20.687A20.486,20.486,0,0,1,814.61-935.193Zm.094,32.055c2.6,0,5.194.02,7.79-.006a2.847,2.847,0,0,0,3.164-3.194q.032-7.712,0-15.425a2.893,2.893,0,0,0-3.164-3.231q-7.712-.07-15.425,0c-2.08.019-3.153,1.159-3.162,3.231q-.035,7.712,0,15.425a2.843,2.843,0,0,0,3.163,3.193C809.614-903.119,812.159-903.139,814.7-903.139Z" transform="translate(-794.009 935.193)" fill="#bfa870" stroke="#bfa870" stroke-width="1"/>
    <path id="Tracé_5" data-name="Tracé 5" d="M905.8-759.474h1.346c.358,6.434,3.244,9.669,9.86,7.583,2.881-.909,3.878-3.381,3.851-7.534h1.435c0,2.906.043,5.753-.053,8.595a1.578,1.578,0,0,1-1.14,1.031q-7.1.108-14.193-.006a1.562,1.562,0,0,1-1.056-1.1C905.755-753.7,905.8-756.508,905.8-759.474Z" transform="translate(-893.285 779.128)" fill="#bfa870" stroke="#bfa870" stroke-width="1"/>
    <path id="Tracé_6" data-name="Tracé 6" d="M946.5-774.941a4.107,4.107,0,0,1-4.156-4.134,4.118,4.118,0,0,1,4.245-4.043,4.094,4.094,0,0,1,4.149,4.131A4.1,4.1,0,0,1,946.5-774.941Z" transform="translate(-925.748 800.128)" fill="#bfa870" stroke="#bfa870" stroke-width="1"/>
    <path id="Tracé_7" data-name="Tracé 7" d="M1017.959-816.235c-2.024,0-2.076-.054-2.07-2.094.005-1.895.065-1.952,2.05-1.954,2.114,0,2.14.022,2.141,2.009C1020.08-816.249,1020.065-816.234,1017.959-816.235Z" transform="translate(-991.071 833.136)" fill="#bfa870" stroke="#bfa870" stroke-width="1"/>
  </g>
</svg>
