<svg xmlns="http://www.w3.org/2000/svg" width="43.257" height="43.244" viewBox="0 0 43.257 43.244">
  <g id="Groupe_4" data-name="Groupe 4" transform="translate(0.5 0.501)">
    <path id="Tracé_1" data-name="Tracé 1" d="M403.19-898.648a21.115,21.115,0,0,1-21.119-21.476,21.145,21.145,0,0,1,21.616-20.762,21.12,21.12,0,0,1,20.638,21.176A21.079,21.079,0,0,1,403.19-898.648Zm2.052-20.979c1.021,0,1.968-.007,2.915,0,.361,0,.538-.114.569-.506.088-1.112.224-2.221.317-3.333.06-.722.029-.742-.714-.746-.876,0-1.753-.018-2.628.012-.4.014-.533-.129-.517-.511.028-.669.014-1.341.051-2.009a1.155,1.155,0,0,1,1.156-1.194c.723-.057,1.451-.051,2.177-.048.407,0,.608-.1.594-.572q-.047-1.62,0-3.242c.014-.5-.183-.661-.655-.645-1.34.043-2.681.053-4.021.1a4.544,4.544,0,0,0-4.554,4.2c-.106,1.071-.079,2.156-.1,3.235-.011.742,0,.741-.717.736-.466,0-.932.01-1.4,0-.361-.01-.49.143-.485.5q.022,1.761,0,3.522c0,.337.138.482.456.484.466,0,.932.013,1.4,0,.731-.021.731-.028.731.717,0,3.746.007,7.493-.01,11.239,0,.531.162.73.705.719,1.36-.028,2.721-.022,4.081,0,.483.007.665-.172.656-.656-.023-1.174-.011-2.348-.012-3.523C405.241-913.945,405.241-916.739,405.241-919.627Z" transform="translate(-382.068 940.891)" fill="#bfa870" stroke="#bfa870" stroke-width="1"/>
  </g>
</svg>
