<svg xmlns="http://www.w3.org/2000/svg" width="257.986" height="43.288" viewBox="0 0 257.986 43.288">
  <g id="Groupe_8" data-name="Groupe 8" transform="translate(26.582 941.561)">
    <g id="Groupe_4" data-name="Groupe 4" transform="translate(45.57 -941.041)">
      <path id="Tracé_1" data-name="Tracé 1" d="M403.19-898.648a21.115,21.115,0,0,1-21.119-21.476,21.145,21.145,0,0,1,21.616-20.762,21.12,21.12,0,0,1,20.638,21.176A21.079,21.079,0,0,1,403.19-898.648Zm2.052-20.979c1.021,0,1.968-.007,2.915,0,.361,0,.538-.114.569-.506.088-1.112.224-2.221.317-3.333.06-.722.029-.742-.714-.746-.876,0-1.753-.018-2.628.012-.4.014-.533-.129-.517-.511.028-.669.014-1.341.051-2.009a1.155,1.155,0,0,1,1.156-1.194c.723-.057,1.451-.051,2.177-.048.407,0,.608-.1.594-.572q-.047-1.62,0-3.242c.014-.5-.183-.661-.655-.645-1.34.043-2.681.053-4.021.1a4.544,4.544,0,0,0-4.554,4.2c-.106,1.071-.079,2.156-.1,3.235-.011.742,0,.741-.717.736-.466,0-.932.01-1.4,0-.361-.01-.49.143-.485.5q.022,1.761,0,3.522c0,.337.138.482.456.484.466,0,.932.013,1.4,0,.731-.021.731-.028.731.717,0,3.746.007,7.493-.01,11.239,0,.531.162.73.705.719,1.36-.028,2.721-.022,4.081,0,.483.007.665-.172.656-.656-.023-1.174-.011-2.348-.012-3.523C405.241-913.945,405.241-916.739,405.241-919.627Z" transform="translate(-382.068 940.891)" fill="#bfa870" stroke="#bfa870" stroke-width="1"/>
    </g>
    <g id="Groupe_5" data-name="Groupe 5" transform="translate(188.614 -941.06)">
      <path id="Tracé_2" data-name="Tracé 2" d="M1217.147-898.773a21.116,21.116,0,0,1-21.111-21.14,21.162,21.162,0,0,1,21.755-21.138,21.157,21.157,0,0,1,20.535,21.164A21.108,21.108,0,0,1,1217.147-898.773Zm.193-13.929v-.1c1.149,0,2.3.025,3.447-.007,1.29-.036,2.581-.095,3.866-.2a2.3,2.3,0,0,0,2.031-1.345,4.771,4.771,0,0,0,.467-1.664c.1-1.953.188-3.912.16-5.867a13.855,13.855,0,0,0-.443-3.143,2.345,2.345,0,0,0-2.313-1.809c-1.741-.109-3.484-.2-5.228-.231-1.83-.032-3.662,0-5.492.039-1.361.03-2.722.1-4.08.194a2.317,2.317,0,0,0-2.054,1.312,4.7,4.7,0,0,0-.49,1.7c-.108,1.939-.186,3.884-.162,5.825a16.414,16.414,0,0,0,.41,3.107,2.259,2.259,0,0,0,1.814,1.776,6.6,6.6,0,0,0,1.3.19C1212.83-912.836,1215.085-912.773,1217.34-912.7Z" transform="translate(-1196.036 941.06)" fill="#bfa870" stroke="#bfa870" stroke-width="1"/>
      <path id="Tracé_3" data-name="Tracé 3" d="M1367-773.1v-5.525l5.318,2.772Z" transform="translate(-1347.877 796.792)" fill="#bfa870" stroke="#bfa870" stroke-width="1"/>
    </g>
    <g id="Groupe_6" data-name="Groupe 6" transform="translate(117.647 -940.403)">
      <path id="Tracé_4" data-name="Tracé 4" d="M814.61-935.193A20.551,20.551,0,0,1,835.169-914.5a20.538,20.538,0,0,1-20.633,20.615,20.473,20.473,0,0,1-20.528-20.687A20.486,20.486,0,0,1,814.61-935.193Zm.094,32.055c2.6,0,5.194.02,7.79-.006a2.847,2.847,0,0,0,3.164-3.194q.032-7.712,0-15.425a2.893,2.893,0,0,0-3.164-3.231q-7.712-.07-15.425,0c-2.08.019-3.153,1.159-3.162,3.231q-.035,7.712,0,15.425a2.843,2.843,0,0,0,3.163,3.193C809.614-903.119,812.159-903.139,814.7-903.139Z" transform="translate(-794.009 935.193)" fill="#bfa870" stroke="#bfa870" stroke-width="1"/>
      <path id="Tracé_5" data-name="Tracé 5" d="M905.8-759.474h1.346c.358,6.434,3.244,9.669,9.86,7.583,2.881-.909,3.878-3.381,3.851-7.534h1.435c0,2.906.043,5.753-.053,8.595a1.578,1.578,0,0,1-1.14,1.031q-7.1.108-14.193-.006a1.562,1.562,0,0,1-1.056-1.1C905.755-753.7,905.8-756.508,905.8-759.474Z" transform="translate(-893.285 779.128)" fill="#bfa870" stroke="#bfa870" stroke-width="1"/>
      <path id="Tracé_6" data-name="Tracé 6" d="M946.5-774.941a4.107,4.107,0,0,1-4.156-4.134,4.118,4.118,0,0,1,4.245-4.043,4.094,4.094,0,0,1,4.149,4.131A4.1,4.1,0,0,1,946.5-774.941Z" transform="translate(-925.748 800.128)" fill="#bfa870" stroke="#bfa870" stroke-width="1"/>
      <path id="Tracé_7" data-name="Tracé 7" d="M1017.959-816.235c-2.024,0-2.076-.054-2.07-2.094.005-1.895.065-1.952,2.05-1.954,2.114,0,2.14.022,2.141,2.009C1020.08-816.249,1020.065-816.234,1017.959-816.235Z" transform="translate(-991.071 833.136)" fill="#bfa870" stroke="#bfa870" stroke-width="1"/>
    </g>
    <g id="Groupe_7" data-name="Groupe 7" transform="translate(-26.082 -940.446)">
      <path id="Tracé_8" data-name="Tracé 8" d="M-26.082-914.721a20.72,20.72,0,0,1,20.9-20.851,20.818,20.818,0,0,1,20.935,20.708A20.911,20.911,0,0,1-5.23-893.9,20.815,20.815,0,0,1-26.082-914.721Zm19.692,5.745a5.932,5.932,0,0,0,5.3,1.952,8.591,8.591,0,0,0,6.73-4.552c2.788-4.985,2.9-11.282-1.739-15.048-2.993-2.431-6.441-2.94-10.169-2.436a11.414,11.414,0,0,0-10.088,11.748,6.42,6.42,0,0,0,3.131,5.653c.336.191,1.228.117,1.3-.057.362-.918.907-1.824.1-2.9a5.035,5.035,0,0,1-.883-2.515,8.242,8.242,0,0,1,8.8-8.993c4.135.182,6.62,2.361,6.984,6.242a11.751,11.751,0,0,1-.191,2.976c-.373,2.257-1.052,4.4-2.936,5.908a3.541,3.541,0,0,1-4.014.381c-1.12-.738-1.372-1.79-.869-3.609.438-1.584.942-3.154,1.29-4.758a2.756,2.756,0,0,0-1.369-3.217,2.911,2.911,0,0,0-3.533,1.182A5,5,0,0,0-9.4-916.7a7.8,7.8,0,0,1-.12,4.065c-.739,3.155-1.46,6.323-1.961,9.522a23.839,23.839,0,0,0,.134,4.552l.453.032C-8.175-901.383-7.227-905.043-6.39-908.976Z" transform="translate(26.082 935.572)" fill="#bfa870" stroke="#bfa870" stroke-width="1"/>
    </g>
  </g>
</svg>
