<svg xmlns="http://www.w3.org/2000/svg" width="43.29" height="43.288" viewBox="0 0 43.29 43.288">
  <g id="Groupe_5" data-name="Groupe 5" transform="translate(0.5 0.501)">
    <path id="Tracé_2" data-name="Tracé 2" d="M1217.147-898.773a21.116,21.116,0,0,1-21.111-21.14,21.162,21.162,0,0,1,21.755-21.138,21.157,21.157,0,0,1,20.535,21.164A21.108,21.108,0,0,1,1217.147-898.773Zm.193-13.929v-.1c1.149,0,2.3.025,3.447-.007,1.29-.036,2.581-.095,3.866-.2a2.3,2.3,0,0,0,2.031-1.345,4.771,4.771,0,0,0,.467-1.664c.1-1.953.188-3.912.16-5.867a13.855,13.855,0,0,0-.443-3.143,2.345,2.345,0,0,0-2.313-1.809c-1.741-.109-3.484-.2-5.228-.231-1.83-.032-3.662,0-5.492.039-1.361.03-2.722.1-4.08.194a2.317,2.317,0,0,0-2.054,1.312,4.7,4.7,0,0,0-.49,1.7c-.108,1.939-.186,3.884-.162,5.825a16.414,16.414,0,0,0,.41,3.107,2.259,2.259,0,0,0,1.814,1.776,6.6,6.6,0,0,0,1.3.19C1212.83-912.836,1215.085-912.773,1217.34-912.7Z" transform="translate(-1196.036 941.06)" fill="#bfa870" stroke="#bfa870" stroke-width="1"/>
    <path id="Tracé_3" data-name="Tracé 3" d="M1367-773.1v-5.525l5.318,2.772Z" transform="translate(-1347.877 796.792)" fill="#bfa870" stroke="#bfa870" stroke-width="1"/>
  </g>
</svg>
