<svg xmlns="http://www.w3.org/2000/svg" width="171.72" height="32.967" viewBox="0 0 171.72 32.967">
  <g id="Groupe_111" data-name="Groupe 111" transform="translate(-60 -17.428)">
    <g id="Groupe_109" data-name="Groupe 109" transform="translate(-601.181 -18.197)">
      <g id="Groupe_99" data-name="Groupe 99" transform="translate(661.18 35.625)">
        <g id="Groupe_97" data-name="Groupe 97" transform="translate(0)">
          <path id="Tracé_47" data-name="Tracé 47" d="M672.947,68.55c-1.307,0-2.62.069-3.916-.046-.378-.033-1.04-.63-1.011-.912.532-5.248-1.821-9.478-4.587-13.612a11.695,11.695,0,0,1,18.836-13.846A10.629,10.629,0,0,1,683.523,52.2a36.3,36.3,0,0,1-2.63,4.452,15.969,15.969,0,0,0-2.9,10.158c.089,1.489-.457,1.89-1.826,1.766C675.1,68.474,674.021,68.551,672.947,68.55Zm3.185-7.533c.909-.47,1.63-.6,1.883-1.014,1.453-2.383,2.8-4.83,4.173-7.263A10.307,10.307,0,0,0,677.4,37.534a10.5,10.5,0,0,0-11.193,1.432,10.148,10.148,0,0,0-2.9,12.8c1.347,2.654,3.006,5.149,4.374,7.793a2.849,2.849,0,0,0,3.277,1.138m5.978,6.9a6.763,6.763,0,0,0,.132-1.763c-.075-.382-.49-.984-.769-.993-2.4-.079-4.806-.045-7.346-.045A12.006,12.006,0,0,0,669,66.883a1.076,1.076,0,0,0,.768.683C672.122,67.62,674.482,67.6,676.943,67.6Zm-6.036-7.1h4.23m-6.424,1.191c-.07,2.24-.07,2.241,2.063,2.243q2.231,0,4.461,0c2.059,0,2.059,0,2.044-2.243Z" transform="translate(-661.18 -35.625)"/>
        </g>
        <g id="Groupe_98" data-name="Groupe 98" transform="translate(6.074 9.941)">
          <path id="Tracé_48" data-name="Tracé 48" d="M707.6,80.751c0,.989.017,1.978-.006,2.966-.017.736-.1,1.47-.123,2.206a12.3,12.3,0,0,0,.032,1.362c.056.741.148,1.479.209,2.22.058.694.125,1.39.131,2.086a2.555,2.555,0,0,1-.22.942.594.594,0,0,1-.709.331.56.56,0,0,1-.473-.484,5.422,5.422,0,0,1-.125-.972c.006-.933.038-1.867.073-2.8.023-.611.044-1.223.107-1.831a15.214,15.214,0,0,0-.228-2.818c-.084-1.054-.09-2.116-.109-3.174a11.063,11.063,0,0,1,.287-2.77,1.392,1.392,0,0,1,.464-.846.553.553,0,0,1,.381-.111c.066.012.14.2.146.306.04.783.067,1.567.089,2.352.01.345,0,.691,0,1.037Z" transform="translate(-701.437 -77.052)"/>
          <path id="Tracé_49" data-name="Tracé 49" d="M713.073,99.185c-.788-.12-.81-.759-.615-1.306a13.876,13.876,0,0,1,.653-1.448,15.479,15.479,0,0,0,.941-2.5c.291-.994.586-1.988.874-2.983a1.145,1.145,0,0,0-.2-1.2,1.988,1.988,0,0,1-.285-2.164,3.351,3.351,0,0,1,1.479-1.817.637.637,0,0,1,.977.244,3.462,3.462,0,0,1,.451,2.166,2.2,2.2,0,0,1-.715,1.557,2.024,2.024,0,0,1-.619.367.949.949,0,0,0-.64.721c-.221,1-.426,2-.629,2.995-.11.545-.231,1.091-.294,1.642-.078.681-.1,1.368-.153,2.051a7.529,7.529,0,0,1-.138,1.019A.764.764,0,0,1,713.073,99.185Z" transform="translate(-706.149 -83.577)"/>
          <path id="Tracé_50" data-name="Tracé 50" d="M687.922,83.7c.276.756.558,1.51.825,2.268.149.421.274.85.408,1.276a1.236,1.236,0,0,1-.064.914,1.871,1.871,0,0,0-.084,1.389c.334,1.1.616,2.21.981,3.3.258.769.616,1.5.931,2.253.22.524.467,1.039.653,1.575a.821.821,0,0,1-.578.987.843.843,0,0,1-1-.566c-.094-.417-.132-.847-.191-1.271-.106-.758-.156-1.527-.323-2.271-.309-1.377-.689-2.738-1.028-4.108a1.167,1.167,0,0,0-.5-.741A2.288,2.288,0,0,1,687,87q-.217-1.094-.429-2.189a3.77,3.77,0,0,1-.078-.731c.225.808.448,1.616.674,2.423.077.272.154.545.25.81.023.064.12.1.183.151.031-.076.1-.161.085-.226-.169-.75-.352-1.5-.528-2.246-.073-.311-.136-.624-.2-.937l.083-.023c.16.574.316,1.148.479,1.721.131.46.267.92.409,1.377.033.1.028.287.226.218s.089-.206.06-.316c-.224-.875-.453-1.748-.677-2.623a.744.744,0,0,1-.013-.326c.151.462.305.923.452,1.387.164.516.316,1.035.486,1.549.022.065.122.1.185.155.041-.071.114-.142.116-.214a1.131,1.131,0,0,0-.071-.32q-.387-1.384-.775-2.768c-.015-.052-.024-.105-.036-.158Z" transform="translate(-686.491 -82.108)"/>
        </g>
        <rect id="Rectangle_68" data-name="Rectangle 68" width="10.439" height="1.215" transform="translate(6.483 24.953)"/>
      </g>
    </g>
    <path id="Tracé_76" data-name="Tracé 76" d="M9.413,7.878v.835a6.4,6.4,0,0,1-.779.269A2.638,2.638,0,0,0,8,9.238a1.3,1.3,0,0,0-.609,1.246V25.395A1.3,1.3,0,0,0,8,26.641a2.928,2.928,0,0,0,.651.255,7.168,7.168,0,0,1,.793.269V28H1.809v-.835a6.4,6.4,0,0,1,.779-.269,2.928,2.928,0,0,0,.651-.255,1.292,1.292,0,0,0,.623-1.246V10.484a1.292,1.292,0,0,0-.623-1.246,2.928,2.928,0,0,0-.651-.255,6.4,6.4,0,0,1-.779-.269V7.878ZM22.658,9.365A5.992,5.992,0,0,0,20.5,8.94a9.45,9.45,0,0,0-1.437.071V7.878h1.388a9.22,9.22,0,0,1,7.123,2.8,10.24,10.24,0,0,1,2.521,7.25A10.261,10.261,0,0,1,27.571,25.2,9.22,9.22,0,0,1,20.449,28H19.061V26.853a12.953,12.953,0,0,0,1.529.071,5.751,5.751,0,0,0,2.074-.432,4.2,4.2,0,0,0,1.876-1.466Q26.1,22.9,26.1,17.932,26.1,10.71,22.658,9.365ZM17.886,28H12.151v-.835a5.269,5.269,0,0,1,.743-.269,2.958,2.958,0,0,0,.644-.255,1.31,1.31,0,0,0,.595-1.246V10.484a1.31,1.31,0,0,0-.595-1.246,2.958,2.958,0,0,0-.644-.255,5.269,5.269,0,0,1-.743-.269V7.878h5.735Z" transform="translate(87.476 19)" fill="#bfa870"/>
    <path id="Tracé_75" data-name="Tracé 75" d="M15.42,8.855q.51,0,.835-.75H17.5v7.08h-.963a4.546,4.546,0,0,1-1.005-1.763q-.439-1.225-.722-1.933a6.179,6.179,0,0,0-.708-1.3,3.645,3.645,0,0,0-2.591-1.543V7.482a7.851,7.851,0,0,1,3.427,1.189A1,1,0,0,0,15.42,8.855ZM11.512,27.08a4.541,4.541,0,0,0,4.432-3.115,10.06,10.06,0,0,0,.651-2.577l1.345.326a8.53,8.53,0,0,1-2.025,4.935,6.316,6.316,0,0,1-4.4,1.777Zm-1.175,1.345a8.211,8.211,0,0,1-6.174-3.016,11.363,11.363,0,0,1-2.351-7.477A11.354,11.354,0,0,1,4.248,10.47a7.87,7.87,0,0,1,6.089-3.03V8.629q-3.129.3-4.163,5.027a20.076,20.076,0,0,0-.382,4.213,18.273,18.273,0,0,0,.382,4.085,9.428,9.428,0,0,0,1.02,2.69,4.587,4.587,0,0,0,3.144,2.351Zm20.4-1.161q2.974-.127,3.894-2.322a4.187,4.187,0,0,0,.312-1.671V10.654A1.706,1.706,0,0,0,33.55,9.011q-.382-.127-.765-.3V7.878h5.947v.835a8.112,8.112,0,0,1-.772.3,3.088,3.088,0,0,0-.7.326,1.428,1.428,0,0,0-.708,1.317V22.832q0,5.154-5.82,5.565Zm-1.175,1.175q-5.3,0-6.74-3.3a6.151,6.151,0,0,1-.481-2.506V10.484a1.344,1.344,0,0,0-.552-1.246,2.411,2.411,0,0,0-.609-.255,6.837,6.837,0,0,1-.765-.269V7.878h7.406v.835a7.732,7.732,0,0,1-.779.269,2.684,2.684,0,0,0-.623.255,1.324,1.324,0,0,0-.552,1.246V23.3a3.8,3.8,0,0,0,1.005,2.719,4.219,4.219,0,0,0,2.69,1.218ZM48.522,7.878v.835a6.4,6.4,0,0,1-.779.269,2.638,2.638,0,0,0-.637.255,1.3,1.3,0,0,0-.609,1.246V25.395a1.3,1.3,0,0,0,.609,1.246,2.928,2.928,0,0,0,.651.255,7.168,7.168,0,0,1,.793.269V28H40.918v-.835A6.4,6.4,0,0,1,41.7,26.9a2.928,2.928,0,0,0,.651-.255,1.292,1.292,0,0,0,.623-1.246V10.484a1.292,1.292,0,0,0-.623-1.246,2.928,2.928,0,0,0-.651-.255,6.4,6.4,0,0,1-.779-.269V7.878Zm9.931-.4a4.907,4.907,0,0,1,1.791.481q.743.382,1.02.538a1,1,0,0,0,.467.156.562.562,0,0,0,.319-.085,1.139,1.139,0,0,0,.227-.2,1.28,1.28,0,0,0,.17-.248q.071-.135.142-.248h1.3V14.52h-1.02a4.508,4.508,0,0,1-.708-1.423q-.4-1.1-.673-1.749A6.17,6.17,0,0,0,60.8,10.13a3.475,3.475,0,0,0-2.351-1.487Zm-2.867,20.44q-.843-.375-1.182-.538a1.6,1.6,0,0,0-.7-.163q-.361,0-.8.779H51.585V21h.977a3.051,3.051,0,0,1,.559.892q.248.566.524,1.225t.6,1.352a6.655,6.655,0,0,0,.793,1.289A3.8,3.8,0,0,0,57.7,27.25v1.161A6.7,6.7,0,0,1,55.586,27.922Zm3.292-.687a3.38,3.38,0,0,0,2.365-1.246,3.448,3.448,0,0,0,.736-2.174,3.848,3.848,0,0,0-.439-1.968,4.835,4.835,0,0,0-1.154-1.317A9.42,9.42,0,0,0,58.75,19.49q-.92-.467-1.876-.927T55.005,17.6a8.271,8.271,0,0,1-1.621-1.154,4.688,4.688,0,0,1-1.6-3.583,5.078,5.078,0,0,1,1.458-3.653,6.017,6.017,0,0,1,4.036-1.756V8.629a2.72,2.72,0,0,0-2.365,1.8,3.542,3.542,0,0,0-.2,1.274,2.494,2.494,0,0,0,.453,1.43,4.743,4.743,0,0,0,1.189,1.189,10.649,10.649,0,0,0,1.678.963q.942.439,1.926.892t1.926.977a8.357,8.357,0,0,1,1.678,1.218,5.061,5.061,0,0,1,1.643,3.795,5.806,5.806,0,0,1-1.742,4.191,6.707,6.707,0,0,1-4.588,2.067Zm16.8-19.357v.835a6.4,6.4,0,0,1-.779.269,2.638,2.638,0,0,0-.637.255,1.3,1.3,0,0,0-.609,1.246V25.395a1.3,1.3,0,0,0,.609,1.246,2.928,2.928,0,0,0,.651.255,7.168,7.168,0,0,1,.793.269V28H68.073v-.835a6.4,6.4,0,0,1,.779-.269,2.928,2.928,0,0,0,.651-.255,1.292,1.292,0,0,0,.623-1.246V10.484A1.292,1.292,0,0,0,69.5,9.238a2.928,2.928,0,0,0-.651-.255,6.4,6.4,0,0,1-.779-.269V7.878ZM92.815,20.467V10.484a1.291,1.291,0,0,0-.708-1.175,5.114,5.114,0,0,0-.7-.312q-.389-.142-.772-.312V7.85h5.919v.835q-.354.17-.729.312a4.7,4.7,0,0,0-.673.312,1.291,1.291,0,0,0-.708,1.175V23.016Zm-10.974-7.5v12.4a1.237,1.237,0,0,0,.736,1.161,4.2,4.2,0,0,0,.758.326q.432.142.885.312V28h-6.23v-.835q.4-.17.793-.312a4.1,4.1,0,0,0,.708-.326,1.258,1.258,0,0,0,.722-1.161V10.838Zm.057-1.756a6.689,6.689,0,0,0-3.03-2.237q-.4-.127-.779-.255V7.878h5.522L94.444,25.012v3.1H92.362ZM98.852,28v-.835a2.774,2.774,0,0,1,.772-.326,3.053,3.053,0,0,0,.616-.212.821.821,0,0,0,.312-.312,3.221,3.221,0,0,0,.283-1.614V11.206a3.437,3.437,0,0,0-.205-1.515,1.156,1.156,0,0,0-.382-.418,2.477,2.477,0,0,0-.4-.163,3.51,3.51,0,0,1-.991-.4V7.878h5.508V28Zm6.684-1.161.269.014a10.941,10.941,0,0,0,4.517-.666,4.156,4.156,0,0,0,1.982-2.8q.127-.439.219-.8a6.056,6.056,0,0,1,.205-.658,2.565,2.565,0,0,1,.595-1.005h.92V28h-8.708Zm5.239-18.96q.878,0,2.832-.212V14.6h-.991a4.846,4.846,0,0,1-.765-1.43q-.269-.793-.552-1.543a6.932,6.932,0,0,0-.566-1.2,2.739,2.739,0,0,0-.708-.765,3.813,3.813,0,0,0-2.3-.623,8.436,8.436,0,0,0-2.188.212V7.878Zm-5.239,8.142h4.135v2.662h-4.135Z" transform="translate(117.476 19)"/>
  </g>
</svg>
