<svg xmlns="http://www.w3.org/2000/svg" width="42.842" height="42.673" viewBox="0 0 42.842 42.673">
  <g id="Groupe_7" data-name="Groupe 7" transform="translate(0.5 0.5)">
    <path id="Tracé_8" data-name="Tracé 8" d="M-26.082-914.721a20.72,20.72,0,0,1,20.9-20.851,20.818,20.818,0,0,1,20.935,20.708A20.911,20.911,0,0,1-5.23-893.9,20.815,20.815,0,0,1-26.082-914.721Zm19.692,5.745a5.932,5.932,0,0,0,5.3,1.952,8.591,8.591,0,0,0,6.73-4.552c2.788-4.985,2.9-11.282-1.739-15.048-2.993-2.431-6.441-2.94-10.169-2.436a11.414,11.414,0,0,0-10.088,11.748,6.42,6.42,0,0,0,3.131,5.653c.336.191,1.228.117,1.3-.057.362-.918.907-1.824.1-2.9a5.035,5.035,0,0,1-.883-2.515,8.242,8.242,0,0,1,8.8-8.993c4.135.182,6.62,2.361,6.984,6.242a11.751,11.751,0,0,1-.191,2.976c-.373,2.257-1.052,4.4-2.936,5.908a3.541,3.541,0,0,1-4.014.381c-1.12-.738-1.372-1.79-.869-3.609.438-1.584.942-3.154,1.29-4.758a2.756,2.756,0,0,0-1.369-3.217,2.911,2.911,0,0,0-3.533,1.182A5,5,0,0,0-9.4-916.7a7.8,7.8,0,0,1-.12,4.065c-.739,3.155-1.46,6.323-1.961,9.522a23.839,23.839,0,0,0,.134,4.552l.453.032C-8.175-901.383-7.227-905.043-6.39-908.976Z" transform="translate(26.082 935.572)" fill="#bfa870" stroke="#bfa870" stroke-width="1"/>
  </g>
</svg>
