<svg id="Groupe_25" data-name="Groupe 25" xmlns="http://www.w3.org/2000/svg" width="28.573" height="30.843" viewBox="0 0 28.573 30.843">
  <g id="Groupe_16" data-name="Groupe 16" transform="translate(0)">
    <path id="Tracé_20" data-name="Tracé 20" d="M694.021,704.237v-1.065c0-3.468-.024-6.936.019-10.4a1.211,1.211,0,0,0-.932-1.362,17.853,17.853,0,0,1-3.6-1.849,5.046,5.046,0,0,1-2.062-5.494,5.218,5.218,0,0,1,4.137-4.488,11.444,11.444,0,0,1,3.431-.2,1.56,1.56,0,0,0,1.578-.674,6.279,6.279,0,0,1,8.731-1.316,4.169,4.169,0,0,1,1.055,1.016,2.059,2.059,0,0,0,2.172.881,10.384,10.384,0,0,1,2.494.077,5.632,5.632,0,0,1,4.729,4.678,5.807,5.807,0,0,1-2.806,6.3,10.707,10.707,0,0,1-1.969.885,2.038,2.038,0,0,0-1.518,1.979q-.246,5.15-.5,10.3c-.011.226-.038.451-.063.737Z" transform="translate(-687.311 -676.169)" fill="#8e8d8d"/>
  </g>
  <rect id="Rectangle_30" data-name="Rectangle 30" width="14.916" height="2.081" transform="translate(6.71 28.761)" fill="#8e8d8d"/>
</svg>
