<?xml version="1.0" encoding="utf-8"?>
<!-- Generator: Adobe Illustrator 23.0.3, SVG Export Plug-In . SVG Version: 6.00 Build 0)  -->
<svg version="1.1" id="Groupe_13" xmlns="http://www.w3.org/2000/svg" xmlns:xlink="http://www.w3.org/1999/xlink" x="0px" y="0px"
	 viewBox="0 0 41.5 30.2" style="enable-background:new 0 0 41.5 30.2;" xml:space="preserve">
<style type="text/css">
	.st0{fill:#8E8D8D;}
</style>
<g id="Groupe_16" transform="translate(0)">
	<path id="Tracé_20" class="st0" d="M13.5,27.5v-1c0-3.4,0-6.7,0-10c0.1-0.6-0.3-1.2-0.9-1.3c-1.2-0.5-2.4-1.1-3.5-1.8
		C7.4,12.2,6.6,10,7.1,8c0.3-2.2,1.9-3.9,4-4.3c1.1-0.2,2.2-0.3,3.3-0.2C15,3.6,15.6,3.4,16,2.9c2-2.7,5.8-3.2,8.4-1.3
		c0.4,0.3,0.7,0.6,1,1c0.5,0.7,1.3,1,2.1,0.9c0.8-0.1,1.6,0,2.4,0.1c2.3,0.4,4.2,2.2,4.6,4.5c0.5,2.4-0.6,4.9-2.7,6.1
		c-0.6,0.3-1.2,0.6-1.9,0.9c-0.9,0.2-1.5,1-1.5,1.9c-0.2,3.3-0.3,6.6-0.5,10c0,0.2,0,0.4-0.1,0.7L13.5,27.5z"/>
</g>
<rect id="Rectangle_30" x="13.5" y="28.2" class="st0" width="14.4" height="2"/>
</svg>
