<svg id="Groupe_24" data-name="Groupe 24" xmlns="http://www.w3.org/2000/svg" width="25.438" height="30.477" viewBox="0 0 25.438 30.477">
  <path id="Tracé_18" data-name="Tracé 18" d="M331.277,781.519H306c-.048-.082-.1-.13-.1-.177a63.23,63.23,0,0,1,.221-7.949,8.276,8.276,0,0,1,8.108-6.774c2.919-.044,5.839-.05,8.757,0a8.472,8.472,0,0,1,8.268,7.824C331.393,776.77,331.277,779.111,331.277,781.519Z" transform="translate(-305.884 -751.041)" fill="#8e8d8d"/>
  <path id="Tracé_19" data-name="Tracé 19" d="M346.507,690.642a6.834,6.834,0,1,1,6.9-6.764A6.822,6.822,0,0,1,346.507,690.642Z" transform="translate(-333.867 -676.973)" fill="#8e8d8d"/>
</svg>
