<?xml version="1.0" encoding="utf-8"?>
<!-- Generator: Adobe Illustrator 23.0.3, SVG Export Plug-In . SVG Version: 6.00 Build 0)  -->
<svg version="1.1" id="Groupe_13" xmlns="http://www.w3.org/2000/svg" xmlns:xlink="http://www.w3.org/1999/xlink" x="0px" y="0px"
	 viewBox="0 0 41.5 30.2" style="enable-background:new 0 0 41.5 30.2;" xml:space="preserve">
<style type="text/css">
	.st0{fill:#8E8D8D;}
</style>
<path id="Tracé_14" class="st0" d="M37.4,12.5c0.4,0,0.8,0,1.2,0.1c1.5,0.1,2.6,1.3,2.7,2.8c0.1,0.8,0,1.5-0.1,2.3
	c-0.3,1.3-1.5,2.3-2.9,2.3c-0.3,0-0.6,0-0.9,0c0,0.2,0,0.4,0,0.6c0,1.9,0,3.7,0,5.6c-0.2,2.3-2,4.1-4.3,4.2c-0.3,0-0.6,0-0.9,0
	c-7.8,0-15.5,0-23.3,0c-2.3,0.1-4.2-1.5-4.7-3.7c-0.1-0.4-0.1-0.8-0.1-1.2c0-1.6,0-3.3,0-4.9v-0.6c-0.3,0-0.6,0-0.9,0
	c-1.7,0-3-1.3-3-3c0,0,0,0,0,0c0-0.6,0-1.3,0.1-1.9c0.3-1.4,1.6-2.5,3.1-2.4c0.2,0,0.5,0,0.8,0c0-0.5,0-0.9,0-1.4c0-0.6,0-1.2,0-1.8
	c0-0.6,0.5-1.1,1.1-1.1c0,0,0.1,0,0.1,0c0.1,0,0.2,0,0.3,0h30.4c1.1,0,1.5,0.4,1.5,1.5C37.4,10.6,37.4,11.5,37.4,12.5z M6.2,10.4
	c0,0.2,0,0.3,0,0.4c0,4.9,0,9.7,0,14.6c0,0.3,0,0.6,0.1,0.8c0.3,1.2,1.4,2,2.6,1.8c7.9,0,15.7,0,23.6,0c1.4,0.2,2.6-0.8,2.8-2.2
	c0-0.2,0-0.4,0-0.6c0-4.8,0-9.6,0-14.4v-0.5L6.2,10.4z M4,17.6v-3c-1.3-0.2-1.8,0.1-1.7,1.4c0,0,0,0,0,0C2.2,17.7,2.8,17.8,4,17.6
	C4,17.7,4,17.7,4,17.6L4,17.6z M37.4,17.7c0.3,0,0.7,0,1,0c0.4,0,0.8-0.4,0.8-0.8c0-0.5,0-1,0-1.5c0-0.4-0.3-0.7-0.7-0.7
	c-0.4,0-0.7-0.1-1.1-0.1L37.4,17.7z"/>
<path id="Tracé_15" class="st0" d="M24.1,4.1L31,4c1.6,0,3.2,0,4.8,0c0.6-0.1,1.1,0.3,1.2,0.9c0.1,0.6-0.3,1.1-0.9,1.2
	c-0.1,0-0.2,0-0.3,0C25.5,6.2,15.2,6.3,5,6.4C4.4,6.4,3.9,6.1,3.7,5.5C3.6,5,3.9,4.5,4.3,4.3c0.2-0.1,0.5-0.1,0.8-0.1
	c3.7,0,7.5-0.1,11.3-0.1c0.1,0,0.2,0,0.3,0c0-0.3,0-0.7,0-1c0-1.6,1.3-2.9,2.9-2.9c0.9-0.1,1.8-0.1,2.6,0.2c1.1,0.5,1.9,1.7,1.8,2.9
	C24,3.6,24,3.8,24.1,4.1C24,4,24,4,24.1,4.1z M18.9,4.1l3,0c0-0.3,0-0.6,0-0.8c0-0.5-0.3-0.9-0.9-1c-0.1,0-0.1,0-0.2,0
	c-0.2,0-0.3,0-0.5,0c-1.6-0.1-1.6,0.5-1.6,1.7C18.8,4,18.8,4.1,18.9,4.1L18.9,4.1z"/>
</svg>
