<?xml version="1.0" encoding="utf-8"?>
<!-- Generator: Adobe Illustrator 23.0.3, SVG Export Plug-In . SVG Version: 6.00 Build 0)  -->
<svg version="1.1" id="Groupe_13" xmlns="http://www.w3.org/2000/svg" xmlns:xlink="http://www.w3.org/1999/xlink" x="0px" y="0px"
	 viewBox="0 0 41.5 30.2" style="enable-background:new 0 0 41.5 30.2;" xml:space="preserve">
<style type="text/css">
	.st0{fill:#8E8D8D;}
</style>
<g id="Groupe_14" transform="translate(-33)">
	<path id="Tracé_16" class="st0" d="M69.6,15.1c0,8.3-6.7,15-14.9,15c-8.3,0-15-6.7-15-14.9c0-8.3,6.7-15,14.9-15c0,0,0.1,0,0.1,0
		C62.9,0.2,69.6,6.8,69.6,15.1z M54.6,27.7c7,0,12.6-5.6,12.7-12.6c0-7-5.6-12.6-12.6-12.7C47.8,2.4,42.1,8,42,14.9
		C41.9,21.9,47.6,27.6,54.6,27.7C54.6,27.7,54.6,27.7,54.6,27.7L54.6,27.7z"/>
	<path id="Tracé_17" class="st0" d="M55.8,9.6c0,1.5,0,3,0,4.5c0,0.4,0.1,0.7,0.4,0.9c1.6,1.5,3.1,3,4.7,4.5
		c0.3,0.3,0.5,0.7,0.5,1.1c0,0.4-0.3,0.8-0.7,0.9c-0.4,0.2-0.9,0.1-1.2-0.3c-0.8-0.7-1.6-1.5-2.3-2.2c-1-1-2.1-2-3.1-3
		c-0.3-0.3-0.4-0.7-0.5-1.1c0-3.3,0-6.6,0-9.9c-0.1-0.6,0.4-1.2,1-1.3c0,0,0.1,0,0.1,0c0.7,0,1.2,0.6,1.2,1.2c0,0,0,0.1,0,0.1
		C55.8,6.5,55.8,8.1,55.8,9.6z"/>
</g>
</svg>
