<?xml version="1.0" encoding="utf-8"?>
<!-- Generator: Adobe Illustrator 23.0.3, SVG Export Plug-In . SVG Version: 6.00 Build 0)  -->
<svg version="1.1" id="Groupe_13" xmlns="http://www.w3.org/2000/svg" xmlns:xlink="http://www.w3.org/1999/xlink" x="0px" y="0px"
	 viewBox="0 0 41.5 30.2" style="enable-background:new 0 0 41.5 30.2;" xml:space="preserve">
<style type="text/css">
	.st0{fill:#8E8D8D;}
</style>
<path id="Tracé_18" class="st0" d="M33.2,30.3H7.9c0-0.1-0.1-0.1-0.1-0.2c-0.1-2.7,0-5.3,0.2-7.9c0.7-3.9,4.1-6.8,8.1-6.8
	c2.9,0,5.8,0,8.8,0c4.4,0.1,7.9,3.5,8.3,7.8C33.3,25.6,33.2,27.9,33.2,30.3z"/>
<path id="Tracé_19" class="st0" d="M20.4,13.9c-3.8,0-6.8-3.1-6.8-6.9s3.1-6.8,6.9-6.8s6.8,3.1,6.8,6.9c0,0,0,0,0,0
	C27.3,10.9,24.2,14,20.4,13.9C20.4,13.9,20.4,13.9,20.4,13.9z"/>
</svg>
