<svg xmlns="http://www.w3.org/2000/svg" width="29.577" height="29.497" viewBox="0 0 29.577 29.497">
  <g id="Groupe_14" data-name="Groupe 14" transform="translate(-33)">
    <path id="Tracé_16" data-name="Tracé 16" d="M522.3,700.166a14.789,14.789,0,1,1-14.74-14.762A14.76,14.76,0,0,1,522.3,700.166Zm-14.833,12.476a12.49,12.49,0,1,0-12.452-12.675A12.545,12.545,0,0,0,507.462,712.642Z" transform="translate(-459.718 -685.404)" fill="#8e8d8d"/>
    <path id="Tracé_17" data-name="Tracé 17" d="M573.741,711.446c0,1.471.014,2.943-.009,4.414a1.118,1.118,0,0,0,.4.909c1.566,1.479,3.114,2.979,4.674,4.464a1.269,1.269,0,0,1,.5,1.1,1.089,1.089,0,0,1-.739.94,1.107,1.107,0,0,1-1.21-.275q-1.163-1.1-2.318-2.214c-1.036-.994-2.094-1.969-3.09-3a1.768,1.768,0,0,1-.467-1.1c-.036-3.258-.022-6.516-.019-9.774a1.156,1.156,0,0,1,1.143-1.288,1.169,1.169,0,0,1,1.136,1.3C573.746,708.433,573.741,709.94,573.741,711.446Z" transform="translate(-524.799 -702.116)" fill="#8e8d8d"/>
  </g>
</svg>
