<svg id="Groupe_13" data-name="Groupe 13" xmlns="http://www.w3.org/2000/svg" width="41.523" height="30.203" viewBox="0 0 41.523 30.203">
  <path id="Tracé_14" data-name="Tracé 14" d="M952.169,739.5c.425.021.8.029,1.168.058a2.979,2.979,0,0,1,2.751,2.784,9.192,9.192,0,0,1-.1,2.276,2.932,2.932,0,0,1-2.875,2.3c-.3.011-.6,0-.949,0,0,.222,0,.39,0,.559-.008,1.872.037,3.746-.04,5.615a4.583,4.583,0,0,1-4.37,4.273c-.316.013-.634.008-.95.008q-11.73,0-23.461,0a4.63,4.63,0,0,1-4.712-3.759,6.37,6.37,0,0,1-.091-1.2c-.01-1.642,0-3.284,0-4.925v-.565c-.33,0-.614.007-.9,0a3.024,3.024,0,0,1-3.037-3.013,9.279,9.279,0,0,1,.07-1.937,3.014,3.014,0,0,1,3.077-2.439c.242-.008.485,0,.788,0,0-.487,0-.929,0-1.371,0-.59-.015-1.182.007-1.771a1.105,1.105,0,0,1,1.162-1.13c.1,0,.2,0,.3,0H950.69c1.107,0,1.478.368,1.479,1.469C952.169,737.636,952.169,738.555,952.169,739.5Zm-31.45-2.069c-.01.152-.024.265-.024.378q0,7.346,0,14.691a3.417,3.417,0,0,0,.1.854,2.472,2.472,0,0,0,2.627,1.858q11.882,0,23.765,0a2.537,2.537,0,0,0,2.83-2.825q0-7.237,0-14.475v-.482Zm-2.217,7.28v-2.991c-1.273-.154-1.854.082-1.749,1.447a.3.3,0,0,1,0,.043c-.1,1.564.512,1.613,1.685,1.539C918.451,744.743,918.462,744.73,918.5,744.706Zm33.691.038c.349,0,.664.023.975-.006a.818.818,0,0,0,.769-.794,12.463,12.463,0,0,0,0-1.464.764.764,0,0,0-.657-.751,9.322,9.322,0,0,0-1.085-.068Z" transform="translate(-914.59 -727.164)" fill="#8e8d8d"/>
  <path id="Tracé_15" data-name="Tracé 15" d="M955.745,692.584l6.954-.052q2.438-.018,4.875-.036a1.088,1.088,0,1,1,.009,2.157q-15.554.12-31.107.237a1.113,1.113,0,0,1-1.241-.842,1.017,1.017,0,0,1,.6-1.2,2.075,2.075,0,0,1,.758-.113q5.673-.049,11.347-.085c.1,0,.2-.013.336-.022.009-.335.006-.661.028-.985a3,3,0,0,1,2.952-2.958,5.261,5.261,0,0,1,2.6.239,3.06,3.06,0,0,1,1.84,2.928c.005.215.008.43.013.645C955.706,692.511,955.717,692.524,955.745,692.584Zm-5.248.041,3.039-.026c0-.3,0-.559-.008-.814a.92.92,0,0,0-1.014-.974c-.157,0-.315.016-.472.008-1.6-.088-1.642.49-1.589,1.689A.542.542,0,0,0,950.5,692.624Z" transform="translate(-931.63 -688.636)" fill="#8e8d8d"/>
</svg>
