<svg xmlns="http://www.w3.org/2000/svg" width="133" height="133" viewBox="0 0 133 133">
  <g id="Groupe_83" data-name="Groupe 83" transform="translate(-372 -2436)">
    <g id="Ellipse_1" data-name="Ellipse 1" transform="translate(372 2436)" fill="#fff" stroke="#707070" stroke-width="0.2">
      <circle cx="66.5" cy="66.5" r="66.5" stroke="none"/>
      <circle cx="66.5" cy="66.5" r="66.4" fill="none"/>
    </g>
    <g id="Groupe_57" data-name="Groupe 57" transform="translate(-497.481 1990.659)">
      <path id="Tracé_27" data-name="Tracé 27" d="M941.037,552.213c-2.665,0-5.343.141-7.987-.093-.77-.069-2.12-1.286-2.062-1.86,1.085-10.7-3.714-19.331-9.355-27.761-3.838-5.735-5.692-12.034-3.915-18.963,2.387-9.311,8.368-15.375,17.585-17.638,9.807-2.408,18.383.43,24.744,8.363,6.023,7.512,6.8,15.923,2.558,24.6a74.015,74.015,0,0,1-5.363,9.079,32.565,32.565,0,0,0-5.916,20.716c.181,3.037-.932,3.855-3.725,3.6C945.43,552.059,943.226,552.217,941.037,552.213Zm-6.009-16.619v-15.5l.925-.166a10.259,10.259,0,0,0,1.346,2.241c1.152,1.138,2.515,2.977,3.711,2.918,1.39-.069,2.758-1.794,4.011-2.937a12.155,12.155,0,0,0,1.58-2.26l.93.257V536.85c1.853-.958,3.324-1.221,3.84-2.067,2.964-4.861,5.716-9.85,8.511-14.813,2.175-3.863,3.849-7.942,3.407-12.454-.845-8.636-5.148-15.1-13.164-18.556-8.058-3.479-15.847-2.479-22.828,2.92a20.7,20.7,0,0,0-5.907,26.105c2.748,5.413,6.131,10.5,8.921,15.894C931.306,535.8,932.3,536.441,935.028,535.594Zm14.158,14.677a13.819,13.819,0,0,0,.27-3.6c-.153-.778-1-2.006-1.57-2.025-4.9-.161-9.8-.093-14.982-.093a24.451,24.451,0,0,0,.074,4.256,2.192,2.192,0,0,0,1.566,1.394C939.354,550.318,944.166,550.271,949.186,550.271ZM945.5,525.259c-2.967,2.868-5.779,2.165-8.627.466v10.056H945.5Zm-13.1,12.952c-.142,4.568-.142,4.57,4.207,4.573q4.549,0,9.1,0c4.2,0,4.2-.005,4.17-4.573Z" transform="translate(-4.952 -5.198)"/>
      <path id="Tracé_28" data-name="Tracé 28" d="M1007.026,527.795l-1.928-1.588a8.181,8.181,0,0,1,2.326-.847c.572-.03,1.176.547,1.765.854Z" transform="translate(-42.679 -22.46)"/>
      <path id="Tracé_29" data-name="Tracé 29" d="M909.515,525.7c-.125.139-.255.4-.374.4-1.221-.053-2.44-.15-3.66-.235a6.447,6.447,0,0,1,.1-1c1.323-.055,2.649-.044,3.974-.044Z" transform="translate(0 -22.23)"/>
      <path id="Tracé_30" data-name="Tracé 30" d="M959.433,477.708c-2.608-1.475-2.663-2.673-.385-4.773C959.182,474.594,959.288,475.9,959.433,477.708Z" transform="translate(-22.246 0)"/>
      <path id="Tracé_31" data-name="Tracé 31" d="M984.284,480.846c.056.259.247.608.145.763-.652.988-1.368,1.934-2.063,2.893-.318-.287-.954-.739-.9-.836.59-1.136,1.283-2.22,1.948-3.317Z" transform="translate(-32.552 -3.176)"/>
      <path id="Tracé_32" data-name="Tracé 32" d="M934.979,483.737a7.977,7.977,0,0,1-1.129.322c-.784-1.016-1.556-2.042-2.33-3.065a7.848,7.848,0,0,1,1.053-.607C933.365,481.4,934.088,482.461,934.979,483.737Z" transform="translate(-11.156 -3.191)"/>
      <path id="Tracé_33" data-name="Tracé 33" d="M915.489,502.008l-3.541-1.97.579-1.166,3.714,1.8Z" transform="translate(-2.77 -11.112)"/>
      <path id="Tracé_34" data-name="Tracé 34" d="M998.524,501.186l3.706-1.722c-.362,2.626-1.757,3-3.342,2.966Z" transform="translate(-39.863 -11.366)"/>
    </g>
  </g>
</svg>
